<?xml version="1.0" encoding="utf-8"?>
<!-- Uploaded to: SVG Repo, www.svgrepo.com, Generator: SVG Repo Mixer Tools -->
<svg width="800px" height="800px" viewBox="0 0 24 24" fill="none" xmlns="http://www.w3.org/2000/svg">
<g id="style=fill">
<g id="notification-bell-new">
<path id="vector (Stroke)" fill-rule="evenodd" clip-rule="evenodd" d="M14.802 19.8312C15.4184 19.7694 15.8349 20.4237 15.5437 20.9534C15.3385 21.3267 15.0493 21.6524 14.7029 21.9193C14.3496 22.1913 13.9397 22.4001 13.5 22.5403C13.0601 22.6807 12.593 22.7517 12.1242 22.7517C11.6554 22.7517 11.1883 22.6807 10.7484 22.5403C10.3087 22.4001 9.89883 22.1913 9.54556 21.9193C9.1991 21.6524 8.90988 21.3267 8.70472 20.9534C8.41354 20.4237 8.83002 19.7694 9.44644 19.8312C9.63869 19.8505 11.1433 19.9976 12.1242 19.9976C13.1051 19.9976 14.6097 19.8505 14.802 19.8312Z" fill="#000000"/>
<path id="Subtract" fill-rule="evenodd" clip-rule="evenodd" d="M15.7423 1.98737C13.4465 0.967602 10.7932 1.00445 8.52901 2.08755C6.27704 3.16478 4.85335 5.3744 4.85335 7.79233L4.85335 9.06596C4.85335 10.1981 4.55987 11.3124 3.99943 12.3082L3.77239 12.7115C2.37502 15.1943 3.90274 18.2653 6.79044 18.7783C10.3154 19.4046 13.93 19.4046 17.455 18.7783L17.6156 18.7498C20.465 18.2435 22.0525 15.29 20.8335 12.7632L20.5681 12.213C20.1236 11.2918 19.8934 10.2885 19.8934 9.27297V8.9514C19.4108 9.23527 18.8484 9.39807 18.248 9.39807C16.4531 9.39807 14.998 7.943 14.998 6.14807C14.998 4.6268 16.0433 3.34965 17.4547 2.99558C17.003 2.63274 16.4979 2.323 15.9475 2.07851L15.7423 1.98737Z" fill="#000000"/>
<circle id="vector" cx="18.248" cy="6.14844" r="2.5" fill="#000000"/>
</g>
</g>
</svg>